*G04 Output by CAMMaster V9.6.1  PentaLogix LLC*
*G04 Thu Feb 01 18:10:08 2007*
*%FSLAX44Y44*%
%MOIN*%
%IPPOS*%
%ADD13C,0.002*%
%ADD14C,0.006*%

%LPD*%
D13*G1X12205Y1630D2*X12206Y1399D1*X12126Y1204*X11695Y1025*X11305*X10874Y1204*X10796Y1398*X10795Y1630*X10811Y10631*X10874Y10796*X11305Y10975*X11695*X12126Y10796*X12204Y10607*X12206Y1634*X0Y17000D2*X26000D1*Y0*X0*Y17000*X26000*Y0*X0*Y17000*D14*X12704Y-14928D2*X11638D1*X12400Y-14166*X12552Y-13938*X12628Y-13785*Y-13633*X12552Y-13480*X12476Y-13404*X12324Y-13328*X12019*X11866Y-13404*X11790Y-13480*X11714Y-13633*Y-13709*X10114Y-13328D2*X9504Y-14928D1*X8895Y-13328*X7676Y-14928D2*X8666D1*X7676Y-14090D2*X8285D1*X8666Y-13328D2*X7676D1*Y-14928*X6609Y-14090D2*X7142Y-14928D1*X6076Y-14090D2*X6762D1*X6990Y-14014*X7066Y-13938*X7142Y-13785*Y-13633*X7066Y-13480*X6990Y-13404*X6762Y-13328*X6076*Y-14928*X3257Y-13328D2*X4324D1*X3562Y-14928*X1733Y-14623D2*X1809Y-14776D1*X1885Y-14852*X2114Y-14928*X2342*X2571Y-14852*X2724Y-14699*X2800Y-14471*Y-14318*X2724Y-14090*X2647Y-14014*X2495Y-13938*X2266*X2724Y-13328*X1885*X209Y-14623D2*X285Y-14776D1*X362Y-14852*X590Y-14928*X819*X1047Y-14852*X1200Y-14699*X1276Y-14471*Y-14318*X1200Y-14090*X1047Y-13938*X819Y-13861*X590*X362Y-13938*X285Y-14014*X362Y-13328*X1124*X-858D2*X-705D1*X-476Y-13404*X-324Y-13633*X-248Y-14014*Y-14242*X-324Y-14623*X-476Y-14852*X-705Y-14928*X-858*X-1086Y-14852*X-1238Y-14623*X-1315Y-14242*Y-14014*X-1238Y-13633*X-1086Y-13404*X-858Y-13328*X-2381D2*X-2229D1*X-2000Y-13404*X-1848Y-13633*X-1772Y-14014*Y-14242*X-1848Y-14623*X-2000Y-14852*X-2229Y-14928*X-2381*X-2610Y-14852*X-2762Y-14623*X-2838Y-14242*Y-14014*X-2762Y-13633*X-2610Y-13404*X-2381Y-13328*X-3905D2*X-3753D1*X-3524Y-13404*X-3372Y-13633*X-3296Y-14014*Y-14242*X-3372Y-14623*X-3524Y-14852*X-3753Y-14928*X-3905*X-4134Y-14852*X-4286Y-14623*X-4362Y-14242*Y-14014*X-4286Y-13633*X-4134Y-13404*X-3905Y-13328*X-6267Y-14242D2*X-4896D1*X-7867Y-14623D2*X-7791Y-14776D1*X-7715Y-14852*X-7486Y-14928*X-7257*X-7029Y-14852*X-6876Y-14699*X-6800Y-14471*Y-14318*X-6876Y-14090*X-6953Y-14014*X-7105Y-13938*X-7334*X-6876Y-13328*X-7715*X-8400Y-14928D2*Y-13328D1*X-9010Y-14928*X-9619Y-13328*Y-14928*X17581Y-17077D2*X17733Y-17229D1*X17962Y-17305*X18266*X18495Y-17229*X18647Y-17077*Y-16848*X18571Y-16696*X18495Y-16620*X18342Y-16544*X17885Y-16391*X17733Y-16315*X17657Y-16239*X17581Y-16086*Y-15934*X17733Y-15782*X17962Y-15705*X18266*X18495Y-15782*X18647Y-15934*X16209Y-17305D2*X17200D1*X16209Y-16467D2*X16819D1*X17200Y-15705D2*X16209D1*Y-17305*X15676Y-16924D2*X15600Y-17077D1*X15447Y-17229*X15295Y-17305*X14990*X14838Y-17229*X14685Y-17077*X14609Y-16924*X14533Y-16696*Y-16315*X14609Y-16086*X14685Y-15934*X14838Y-15782*X14990Y-15705*X15295*X15447Y-15782*X15600Y-15934*X15676Y-16086*X14000Y-15705D2*Y-17305D1*X13619Y-15705D2*X13009Y-17305D1*X12400Y-15705*X11181Y-17305D2*X12171D1*X11181Y-16467D2*X11790D1*X12171Y-15705D2*X11181D1*Y-17305*X9581D2*X10114D1*X10342Y-17229*X10495Y-17077*X10571Y-16924*X10647Y-16696*Y-16315*X10571Y-16086*X10495Y-15934*X10342Y-15782*X10114Y-15705*X9581*Y-17305*X7981D2*X7066D1*Y-15705*X6685Y-17305D2*X5771D1*Y-15705*X5162D2*Y-17305D1*X3562Y-16544D2*X4247D1*X4476Y-16467*X4552Y-16391*X4628Y-16239*Y-16010*X4552Y-15858*X4476Y-15782*X4247Y-15705*X3562*Y-17305*X1809Y-17153D2*Y-17229D1*X1733Y-17305*X1581*X1428Y-17229*X1276Y-17077*X895Y-16544*X742Y-16315*X666Y-16086*Y-15934*X742Y-15782*X895Y-15705*X1047Y-15782*X1124Y-15934*Y-16086*X1047Y-16239*X971Y-16315*X438Y-16620*X362Y-16696*X285Y-16848*Y-17001*X362Y-17153*X438Y-17229*X590Y-17305*X895*X1047Y-17229*X1200Y-17077*X1352Y-16848*X1504Y-16467*X1581Y-16315*X1657Y-16239*X1733*X1809Y-16315*Y-16391*X-2305Y-17305D2*X-1315D1*X-2305Y-16467D2*X-1696D1*X-1315Y-15705D2*X-2305D1*Y-17305*X-3219Y-16696D2*X-2838D1*Y-16924*X-2915Y-17077*X-3067Y-17229*X-3219Y-17305*X-3524*X-3676Y-17229*X-3829Y-17077*X-3905Y-16924*X-3981Y-16696*Y-16315*X-3905Y-16086*X-3829Y-15934*X-3676Y-15782*X-3524Y-15705*X-3219*X-3067Y-15782*X-2915Y-15934*X-2838Y-16086*X-4515Y-15705D2*Y-17305D1*X-5581Y-15705*Y-17305*X-6953Y-16772D2*X-6191D1*X-5962Y-17305D2*X-6572Y-15705D1*X-7181Y-17305*X-7334D2*X-8248D1*Y-15705*X-9619Y-16467D2*X-9010D1*X-8629Y-15705D2*X-9619D1*Y-17305*X15219Y-18013D2*X16285D1*X15524Y-19613*X14152Y-18013D2*X14304D1*X14533Y-18089*X14685Y-18317*X14762Y-18698*Y-18927*X14685Y-19308*X14533Y-19536*X14304Y-19613*X14152*X13924Y-19536*X13771Y-19308*X13695Y-18927*Y-18698*X13771Y-18317*X13924Y-18089*X14152Y-18013*X12857Y-18089D2*X12019Y-19689D1*X11257Y-18013D2*Y-19613D1*X11638Y-19079D2*X10495D1*X11257Y-18013*X10038Y-19613D2*X8971D1*X9733Y-18851*X9885Y-18622*X9962Y-18470*Y-18317*X9885Y-18165*X9809Y-18089*X9657Y-18013*X9352*X9200Y-18089*X9124Y-18165*X9047Y-18317*Y-18394*X8133Y-18089D2*X7295Y-19689D1*X6381Y-19613D2*Y-18013D1*X6152Y-18241*X6000Y-18317*X4704Y-18013D2*X4857D1*X5085Y-18089*X5238Y-18317*X5314Y-18698*Y-18927*X5238Y-19308*X5085Y-19536*X4857Y-19613*X4704*X4476Y-19536*X4324Y-19308*X4247Y-18927*Y-18698*X4324Y-18317*X4476Y-18089*X4704Y-18013*X-934Y-19613D2*X-400D1*X-172Y-19536*X-19Y-19384*X57Y-19232*X133Y-19003*Y-18622*X57Y-18394*X-19Y-18241*X-172Y-18089*X-400Y-18013*X-934*Y-19613*X-2229Y-18013D2*X-1924D1*X-1772Y-18089*X-1619Y-18241*X-1543Y-18394*X-1467Y-18622*Y-19003*X-1543Y-19232*X-1619Y-19384*X-1772Y-19536*X-1924Y-19613*X-2229*X-2381Y-19536*X-2534Y-19384*X-2610Y-19232*X-2686Y-19003*Y-18622*X-2610Y-18394*X-2534Y-18241*X-2381Y-18089*X-2229Y-18013*X-3905D2*X-3600D1*X-3448Y-18089*X-3296Y-18241*X-3219Y-18394*X-3143Y-18622*Y-19003*X-3219Y-19232*X-3296Y-19384*X-3448Y-19536*X-3600Y-19613*X-3905*X-4058Y-19536*X-4210Y-19384*X-4286Y-19232*X-4362Y-19003*Y-18622*X-4286Y-18394*X-4210Y-18241*X-4058Y-18089*X-3905Y-18013*X-4743D2*X-5124Y-19613D1*X-5505Y-18013*X-5886Y-19613*X-6267Y-18013*X-8019Y-19460D2*X-7943Y-19536D1*X-8019Y-19613*X-8096Y-19536*X-8019Y-19460*X-9696Y-19384D2*X-9543Y-19536D1*X-9315Y-19613*X-9010*X-8781Y-19536*X-8629Y-19384*Y-19156*X-8705Y-19003*X-8781Y-18927*X-8934Y-18851*X-9391Y-18698*X-9543Y-18622*X-9619Y-18546*X-9696Y-18394*Y-18241*X-9543Y-18089*X-9315Y-18013*X-9010*X-8781Y-18089*X-8629Y-18241*X24935Y-5852D2*X24078D1*Y-4352*X22792Y-5352D2*X23506D1*X23720Y-5852D2*X23149Y-4352D1*X22578Y-5852*X22220Y-4352D2*Y-5852D1*X20863Y-4352D2*X21863D1*X21363D2*Y-5852D1*X20506Y-4352D2*Y-5852D1*X19506Y-4352*Y-5852*X18149D2*X19078D1*X18149Y-5066D2*X18720D1*X19078Y-4352D2*X18149D1*Y-5852*X16649D2*X17149D1*X17363Y-5780*X17506Y-5637*X17578Y-5495*X17649Y-5280*Y-4923*X17578Y-4709*X17506Y-4566*X17363Y-4423*X17149Y-4352*X16649*Y-5852*X16078Y-4352D2*Y-5852D1*X14792Y-5066D2*X15363D1*X15720Y-4352D2*X14792D1*Y-5852*X14220Y-4352D2*Y-5852D1*X13220Y-4352*Y-5852*X12006Y-4352D2*X12292D1*X12435Y-4423*X12578Y-4566*X12649Y-4709*X12720Y-4923*Y-5280*X12649Y-5495*X12578Y-5637*X12435Y-5780*X12292Y-5852*X12006*X11863Y-5780*X11720Y-5637*X11649Y-5495*X11578Y-5280*Y-4923*X11649Y-4709*X11720Y-4566*X11863Y-4423*X12006Y-4352*X11149Y-5495D2*X11078Y-5637D1*X10935Y-5780*X10792Y-5852*X10506*X10363Y-5780*X10220Y-5637*X10149Y-5495*X10078Y-5280*Y-4923*X10149Y-4709*X10220Y-4566*X10363Y-4423*X10506Y-4352*X10792*X10935Y-4423*X11078Y-4566*X11149Y-4709*X7649Y-5852D2*X8578D1*X7649Y-5066D2*X8220D1*X8578Y-4352D2*X7649D1*Y-5852*X6292D2*X7220D1*X6292Y-5066D2*X6863D1*X7220Y-4352D2*X6292D1*Y-5852*X5292Y-5066D2*X5792Y-5852D1*X4792Y-5066D2*X5435D1*X5649Y-4995*X5720Y-4923*X5792Y-4780*Y-4637*X5720Y-4495*X5649Y-4423*X5435Y-4352*X4792*Y-5852*X4292Y-5495D2*X4220Y-5637D1*X4078Y-5780*X3935Y-5852*X3649*X3506Y-5780*X3363Y-5637*X3292Y-5495*X3220Y-5280*Y-4923*X3292Y-4709*X3363Y-4566*X3506Y-4423*X3649Y-4352*X3935*X4078Y-4423*X4220Y-4566*X4292Y-4709*X35485Y-10188D2*X35562Y-10264D1*X35485Y-10340*X35409Y-10264*X35485Y-10188*X34190Y-9426D2*X34876Y-10340D1*Y-8740D2*X33809Y-9807D1*Y-8740D2*Y-10340D1*X32133Y-9502D2*X33200D1*Y-8740D2*Y-10340D1*X32133Y-8740D2*Y-10340D1*X30685Y-8740D2*X31752D1*X31219D2*Y-10340D1*X28552Y-8740D2*X28704D1*X28933Y-8816*X29085Y-9045*X29162Y-9426*Y-9654*X29085Y-10035*X28933Y-10264*X28704Y-10340*X28552*X28324Y-10264*X28171Y-10035*X28095Y-9654*Y-9426*X28171Y-9045*X28324Y-8816*X28552Y-8740*X27638Y-10340D2*X26571D1*X27333Y-9578*X27485Y-9349*X27562Y-9197*Y-9045*X27485Y-8892*X27409Y-8816*X27257Y-8740*X26952*X26800Y-8816*X26724Y-8892*X26647Y-9045*Y-9121*X25504Y-8740D2*X25657D1*X25885Y-8816*X26038Y-9045*X26114Y-9426*Y-9654*X26038Y-10035*X25885Y-10264*X25657Y-10340*X25504*X25276Y-10264*X25124Y-10035*X25047Y-9654*Y-9426*X25124Y-9045*X25276Y-8816*X25504Y-8740*X24438Y-10188D2*X24514Y-10264D1*X24438Y-10340*X24362Y-10264*X24438Y-10188*X22381Y-10645D2*X22457Y-10568D1*X22533Y-10416*Y-10264*X22457Y-10188*X22381Y-10264*X22457Y-10340*X22533Y-10264*X20781Y-10340D2*X21466D1*X21695Y-10264*X21771Y-10188*X21847Y-10035*Y-9807*X21771Y-9654*X21695Y-9578*X21466Y-9502*X20781*X21466D2*X21695Y-9426D1*X21771Y-9349*X21847Y-9197*Y-9045*X21771Y-8892*X21695Y-8816*X21466Y-8740*X20781*Y-10340*X19638Y-8740D2*X19790D1*X20019Y-8816*X20171Y-9045*X20247Y-9426*Y-9654*X20171Y-10035*X20019Y-10264*X19790Y-10340*X19638*X19409Y-10264*X19257Y-10035*X19181Y-9654*Y-9426*X19257Y-9045*X19409Y-8816*X19638Y-8740*X17657Y-10035D2*X17733Y-10188D1*X17809Y-10264*X18038Y-10340*X18266*X18495Y-10264*X18647Y-10111*X18724Y-9883*Y-9730*X18647Y-9502*X18495Y-9349*X18266Y-9273*X18038*X17809Y-9349*X17733Y-9426*X17809Y-8740*X18571*X16133Y-10035D2*X16209Y-10188D1*X16285Y-10264*X16514Y-10340*X16742*X16971Y-10264*X17124Y-10111*X17200Y-9883*Y-9730*X17124Y-9502*X17047Y-9426*X16895Y-9349*X16666*X17124Y-8740*X16285*X15371D2*Y-10340D1*X15752Y-9807D2*X14609D1*X15371Y-8740*X13542D2*X13695D1*X13924Y-8816*X14076Y-9045*X14152Y-9426*Y-9654*X14076Y-10035*X13924Y-10264*X13695Y-10340*X13542*X13314Y-10264*X13162Y-10035*X13085Y-9654*Y-9426*X13162Y-9045*X13314Y-8816*X13542Y-8740*X12095Y-9502D2*X12628Y-10340D1*X11562Y-9502D2*X12247D1*X12476Y-9426*X12552Y-9349*X12628Y-9197*Y-9045*X12552Y-8892*X12476Y-8816*X12247Y-8740*X11562*Y-10340*X9581Y-10645D2*X9657Y-10568D1*X9733Y-10416*Y-10264*X9657Y-10188*X9581Y-10264*X9657Y-10340*X9733Y-10264*X7981Y-10340D2*X8666D1*X8895Y-10264*X8971Y-10188*X9047Y-10035*Y-9807*X8971Y-9654*X8895Y-9578*X8666Y-9502*X7981*X8666D2*X8895Y-9426D1*X8971Y-9349*X9047Y-9197*Y-9045*X8971Y-8892*X8895Y-8816*X8666Y-8740*X7981*Y-10340*X7447Y-9959D2*X7371Y-10111D1*X7219Y-10264*X7066Y-10340*X6762*X6609Y-10264*X6457Y-10111*X6381Y-9959*X6304Y-9730*Y-9349*X6381Y-9121*X6457Y-8968*X6609Y-8816*X6762Y-8740*X7066*X7219Y-8816*X7371Y-8968*X7447Y-9121*X4781Y-9578D2*X5466D1*X5695Y-9502*X5771Y-9426*X5847Y-9273*Y-9045*X5771Y-8892*X5695Y-8816*X5466Y-8740*X4781*Y-10340*X2495Y-9502D2*X3028Y-10340D1*X1962Y-9502D2*X2647D1*X2876Y-9426*X2952Y-9349*X3028Y-9197*Y-9045*X2952Y-8892*X2876Y-8816*X2647Y-8740*X1962*Y-10340*X514D2*X1504D1*X514Y-9502D2*X1124D1*X1504Y-8740D2*X514D1*Y-10340*X-934Y-8740D2*X133D1*X-400D2*Y-10340D1*X-2305Y-10111D2*X-2153Y-10264D1*X-1924Y-10340*X-1619*X-1391Y-10264*X-1238Y-10111*Y-9883*X-1315Y-9730*X-1391Y-9654*X-1543Y-9578*X-2000Y-9426*X-2153Y-9349*X-2229Y-9273*X-2305Y-9121*Y-8968*X-2153Y-8816*X-1924Y-8740*X-1619*X-1391Y-8816*X-1238Y-8968*X-3600Y-9807D2*X-2838D1*X-2610Y-10340D2*X-3219Y-8740D1*X-3829Y-10340*X-4210D2*Y-8740D1*X-4819Y-10340*X-5429Y-8740*Y-10340*X-6876Y-8740D2*X-5810D1*X-6343D2*Y-10340D1*X-7715Y-9502D2*X-7181Y-10340D1*X-8248Y-9502D2*X-7562D1*X-7334Y-9426*X-7258Y-9349*X-7181Y-9197*Y-9045*X-7258Y-8892*X-7334Y-8816*X-7562Y-8740*X-8248*Y-10340*X-9619Y-9807D2*X-8857D1*X-8629Y-10340D2*X-9238Y-8740D1*X-9848Y-10340*X26808Y-12721D2*X27341D1*X27570Y-12645*X27722Y-12493*X27798Y-12340*X27874Y-12112*Y-11731*X27798Y-11502*X27722Y-11350*X27570Y-11197*X27341Y-11121*X26808*Y-12721*X25741Y-11883D2*X26274Y-12721D1*X25208Y-11883D2*X25893D1*X26122Y-11807*X26198Y-11731*X26274Y-11578*Y-11426*X26198Y-11274*X26122Y-11197*X25893Y-11121*X25208*Y-12721*X23836Y-12188D2*X24598D1*X24827Y-12721D2*X24217Y-11121D1*X23608Y-12721*X22541Y-11121D2*X22846D1*X22998Y-11197*X23150Y-11350*X23227Y-11502*X23303Y-11731*Y-12112*X23227Y-12340*X23150Y-12493*X22998Y-12645*X22846Y-12721*X22541*X22389Y-12645*X22236Y-12493*X22160Y-12340*X22084Y-12112*Y-11731*X22160Y-11502*X22236Y-11350*X22389Y-11197*X22541Y-11121*X20560Y-12721D2*X21246D1*X21474Y-12645*X21550Y-12569*X21627Y-12416*Y-12188*X21550Y-12036*X21474Y-11959*X21246Y-11883*X20560*X21246D2*X21474Y-11807D1*X21550Y-11731*X21627Y-11578*Y-11426*X21550Y-11274*X21474Y-11197*X21246Y-11121*X20560*Y-12721*X18960D2*X18046D1*Y-11121*X16674Y-12188D2*X17436D1*X17665Y-12721D2*X17055Y-11121D1*X16446Y-12721*X16293Y-11121D2*X15684Y-12721D1*X15074Y-11121*X13855Y-12721D2*X14846D1*X13855Y-11883D2*X14465D1*X14846Y-11121D2*X13855D1*Y-12721*X12027Y-11121D2*Y-12721D1*X10960Y-11121*Y-12721*X10350Y-12493D2*X10198Y-12645D1*X10046Y-12721*X9817*X9665Y-12645*X9512Y-12493*X9436Y-12264*Y-12112*X9512Y-11883*X9665Y-11731*X9817Y-11654*X10046*X10198Y-11731*X10350Y-11883*Y-11654D2*Y-12721D1*X8598Y-12112D2*X8979D1*Y-12340*X8903Y-12493*X8750Y-12645*X8598Y-12721*X8293*X8141Y-12645*X7989Y-12493*X7912Y-12340*X7836Y-12112*Y-11731*X7912Y-11502*X7989Y-11350*X8141Y-11197*X8293Y-11121*X8598*X8750Y-11197*X8903Y-11350*X8979Y-11502*X6236Y-11121D2*X5855Y-12721D1*X5474Y-11121*X5093Y-12721*X4712Y-11121*X3722D2*X3874D1*X4103Y-11197*X4255Y-11426*X4331Y-11807*Y-12036*X4255Y-12416*X4103Y-12645*X3874Y-12721*X3722*X3493Y-12645*X3341Y-12416*X3265Y-12036*Y-11807*X3341Y-11426*X3493Y-11197*X3722Y-11121*X2350Y-12721D2*Y-11121D1*X2122Y-11350*X1970Y-11426*X-164Y-13026D2*X-88Y-12950D1*X-11Y-12797*Y-12645*X-88Y-12569*X-164Y-12645*X-88Y-12721*X-11Y-12645*X-1535Y-12721D2*X-697D1*X-1535Y-11654D2*X-697D1*X-1535Y-12721*X-3135Y-11883D2*X-2069D1*Y-11121D2*Y-12721D1*X-3135Y-11121D2*Y-12721D1*X-4050Y-12112D2*X-3669D1*Y-12340*X-3745Y-12493*X-3897Y-12645*X-4050Y-12721*X-4354*X-4507Y-12645*X-4659Y-12493*X-4735Y-12340*X-4811Y-12112*Y-11731*X-4735Y-11502*X-4659Y-11350*X-4507Y-11197*X-4354Y-11121*X-4050*X-3897Y-11197*X-3745Y-11350*X-3669Y-11502*X-7554Y-11121D2*X-6488D1*X-7250Y-12721*X-8164Y-12569D2*X-8088Y-12645D1*X-8164Y-12721*X-8240Y-12645*X-8164Y-12569*X-9840Y-12416D2*X-9764Y-12569D1*X-9688Y-12645*X-9459Y-12721*X-9230*X-9002Y-12645*X-8850Y-12493*X-8773Y-12264*Y-12112*X-8850Y-11883*X-8926Y-11807*X-9078Y-11731*X-9307*X-8850Y-11121*X-9688*X0Y0D2*M02*