*G04 Output by CAMMaster V9.6.1  PentaLogix LLC*
*G04 Thu Feb 01 18:10:08 2007*
*%FSLAX44Y44*%
%MOIN*%
%IPPOS*%
%ADD14C,0.006*%
%ADD200C,0.005*%
%ADD203C,0.139*%
%ADD204C,0.186*%
%ADD205C,0.012*%

%LPD*%
G36*G1X23550Y6370D2*Y6170D1*X23750*Y6370*X23550*G37*G36*G1X23550Y5850D2*Y5650D1*X23750*Y5850*X23550*G37*G36*G1X23030Y6370D2*Y6170D1*X23230*Y6370*X23030*G37*G36*G1X23030Y5850D2*Y5650D1*X23230*Y5850*X23030*G37*G36*G1X23290Y5850D2*Y5650D1*X23490*Y5850*X23290*G37*G36*G1X23290Y6370D2*Y6170D1*X23490*Y6370*X23290*G37*G36*G1X21240Y5730D2*Y5530D1*X21440*Y5730*X21240*G37*G36*G1X21500Y5730D2*Y5530D1*X21700*Y5730*X21500*G37*G36*G1X21760Y5730D2*Y5530D1*X21960*Y5730*X21760*G37*G36*G1X20720Y5730D2*Y5530D1*X20920*Y5730*X20720*G37*G36*G1X20460Y5730D2*Y5530D1*X20660*Y5730*X20460*G37*G36*G1X20980Y5730D2*Y5530D1*X21180*Y5730*X20980*G37*G36*G1X20200Y5730D2*Y5530D1*X20400*Y5730*X20200*G37*G36*G1X19680Y5730D2*Y5530D1*X19880*Y5730*X19680*G37*G36*G1X19940Y5730D2*Y5530D1*X20140*Y5730*X19940*G37*G36*G1X21760Y6490D2*Y6290D1*X21960*Y6490*X21760*G37*G36*G1X21500Y6490D2*Y6290D1*X21700*Y6490*X21500*G37*G36*G1X21240Y6490D2*Y6290D1*X21440*Y6490*X21240*G37*G36*G1X20720Y6490D2*Y6290D1*X20920*Y6490*X20720*G37*G36*G1X20460Y6490D2*Y6290D1*X20660*Y6490*X20460*G37*G36*G1X20980Y6490D2*Y6290D1*X21180*Y6490*X20980*G37*G36*G1X20190Y6490D2*Y6290D1*X20390*Y6490*X20190*G37*G36*G1X19670Y6490D2*Y6290D1*X19870*Y6490*X19670*G37*G36*G1X19930Y6490D2*Y6290D1*X20130*Y6490*X19930*G37*G36*G1X17450Y7720D2*Y7570D1*X17850*Y7720*X17450*G37*G36*G1X18900Y5730D2*Y5530D1*X19100*Y5730*X18900*G37*G36*G1X18380Y5730D2*Y5530D1*X18580*Y5730*X18380*G37*G36*G1X18120Y5730D2*Y5530D1*X18320*Y5730*X18120*G37*G36*G1X18640Y5730D2*Y5530D1*X18840*Y5730*X18640*G37*G36*G1X17030Y5700D2*Y5500D1*X17230*Y5700*X17030*G37*G36*G1X16770Y5700D2*Y5500D1*X16970*Y5700*X16770*G37*G36*G1X16510Y5700D2*Y5500D1*X16710*Y5700*X16510*G37*G36*G1X15470Y5700D2*Y5500D1*X15650*Y5700*X15470*G37*G36*G1X15710Y5700D2*Y5500D1*X15910*Y5700*X15710*G37*G36*G1X15970Y5700D2*Y5500D1*X16150*Y5700*X15970*G37*G36*G1X14730Y4760D2*Y4260D1*X14880*Y4760*X14730*G37*G36*G1X19090Y6290D2*Y6490D1*X18890*Y6290*X19090*G37*G36*G1X18310Y6290D2*Y6490D1*X18110*Y6290*X18310*G37*G36*G1X18570Y6290D2*Y6490D1*X18370*Y6290*X18570*G37*G36*G1X18830Y6290D2*Y6490D1*X18630*Y6290*X18830*G37*G36*G1X16670Y6320D2*Y6520D1*X16470*Y6320*X16670*G37*G36*G1X16930Y6320D2*Y6520D1*X16730*Y6320*X16930*G37*G36*G1X17190Y6320D2*Y6520D1*X16990*Y6320*X17190*G37*G36*G1X16210Y6520D2*Y6320D1*X16410*Y6520*X16210*G37*G36*G1X15970Y6520D2*Y6320D1*X16150*Y6520*X15970*G37*G36*G1X15710Y6520D2*Y6320D1*X15910*Y6520*X15710*G37*G36*G1X15470Y6520D2*Y6320D1*X15650*Y6520*X15470*G37*G36*G1X7080Y8230D2*Y7730D1*X7230*Y8230*X7080*G37*G36*G1X6870Y8230D2*Y7730D1*X7020*Y8230*X6870*G37*G36*G1X9740Y5260D2*X9990D1*Y5060*X10290*Y5260*X10590*Y6760*X10290*Y6960*X9990*Y6760*X9740*Y5260*G37*G36*G1X9190Y6760D2*Y6230D1*X8940*Y5790*X9190*Y5260*X9540*Y6990*X9570*Y7310*X9160*Y6990*X9440*Y6760*X9190*G37*G36*G1X7290Y8230D2*Y7730D1*X8170*Y6060*X7770*Y6850*X7320*Y6550*X7050*Y6090*X7420*Y6750*X7670*Y5930*X7050*Y5470*X7420*Y5830*X7770*Y5960*X8270*Y5020*X8170*Y4570*X8670*Y5020*X8570*Y5790*X8720*Y6230*X8670*Y7730*X8170Y8230*X7290*G37*G36*G1X5370Y6750D2*Y6550D1*X5570*Y6750*X5370*G37*G36*G1X5110Y6750D2*Y6550D1*X5310*Y6750*X5110*G37*G36*G1X4850Y6750D2*Y6550D1*X5050*Y6750*X4850*G37*G36*G1X4330Y6750D2*Y6550D1*X4530*Y6750*X4330*G37*G36*G1X4070Y6750D2*Y6550D1*X4270*Y6750*X4070*G37*G36*G1X4590Y6750D2*Y6550D1*X4790*Y6750*X4590*G37*G36*G1X3810Y6750D2*Y6550D1*X4010*Y6750*X3810*G37*G36*G1X3550Y6750D2*Y6550D1*X3750*Y6750*X3550*G37*G36*G1X3290Y6750D2*Y6550D1*X3490*Y6750*X3290*G37*G36*G1X6170Y6320D2*Y6120D1*X6370*Y6320*X6170*G37*G36*G1X5910Y6320D2*Y6120D1*X6110*Y6320*X5910*G37*G36*G1X6110Y5700D2*Y5900D1*X5910*Y5700*X6110*G37*G36*G1X6370Y5700D2*Y5900D1*X6170*Y5700*X6370*G37*G36*G1X5110Y5730D2*Y5530D1*X5310*Y5730*X5110*G37*G36*G1X5370Y5730D2*Y5530D1*X5570*Y5730*X5370*G37*G36*G1X5650Y6320D2*Y6120D1*X5850*Y6320*X5650*G37*G36*G1X5650Y5900D2*Y5700D1*X5850*Y5900*X5650*G37*G36*G1X5310Y5270D2*Y5470D1*X5110*Y5270*X5310*G37*G36*G1X5570Y5270D2*Y5470D1*X5370*Y5270*X5570*G37*G36*G1X4850Y5470D2*Y5270D1*X5050*Y5470*X4850*G37*G36*G1X4850Y5730D2*Y5530D1*X5050*Y5730*X4850*G37*G36*G1X4330Y5470D2*Y5270D1*X4530*Y5470*X4330*G37*G36*G1X4330Y5730D2*Y5530D1*X4530*Y5730*X4330*G37*G36*G1X4070Y5470D2*Y5270D1*X4270*Y5470*X4070*G37*G36*G1X4070Y5730D2*Y5530D1*X4270*Y5730*X4070*G37*G36*G1X4590Y5470D2*Y5270D1*X4790*Y5470*X4590*G37*G36*G1X4590Y5730D2*Y5530D1*X4790*Y5730*X4590*G37*G36*G1X3550Y5470D2*Y5270D1*X3750*Y5470*X3550*G37*G36*G1X3550Y5730D2*Y5530D1*X3750*Y5730*X3550*G37*G36*G1X3810Y5730D2*Y5530D1*X4010*Y5730*X3810*G37*G36*G1X3810Y5470D2*Y5270D1*X4010*Y5470*X3810*G37*G36*G1X3290Y5469D2*Y5269D1*X3490*Y5469*X3290*G37*G36*G1X3290Y5729D2*Y5529D1*X3490*Y5729*X3290*G37*G36*G1X3030Y5729D2*Y5529D1*X3230*Y5729*X3030*G37*G36*G1X2770Y5729D2*Y5529D1*X2970*Y5729*X2770*G37*G36*G1X2510Y5729D2*Y5529D1*X2710*Y5729*X2510*G37*G36*G1X3230Y5269D2*Y5469D1*X3030*Y5269*X3230*G37*G36*G1X2970Y5269D2*Y5469D1*X2770*Y5269*X2970*G37*G36*G1X2710Y5269D2*Y5469D1*X2510*Y5269*X2710*G37*G36*G1X3030Y6750D2*Y6550D1*X3230*Y6750*X3030*G37*G36*G1X2770Y6750D2*Y6550D1*X2970*Y6750*X2770*G37*G36*G1X2510Y6750D2*Y6550D1*X2710*Y6750*X2510*G37*G36*G1X5570Y6290D2*Y6490D1*X5370*Y6290*X5570*G37*G36*G1X5310Y6290D2*Y6490D1*X5110*Y6290*X5310*G37*G36*G1X5050Y6290D2*Y6490D1*X4850*Y6290*X5050*G37*G36*G1X4530Y6290D2*Y6490D1*X4330*Y6290*X4530*G37*G36*G1X4270Y6290D2*Y6490D1*X4070*Y6290*X4270*G37*G36*G1X4790Y6290D2*Y6490D1*X4590*Y6290*X4790*G37*G36*G1X4010Y6290D2*Y6490D1*X3810*Y6290*X4010*G37*G36*G1X3750Y6290D2*Y6490D1*X3550*Y6290*X3750*G37*G36*G1X3490Y6290D2*Y6490D1*X3290*Y6290*X3490*G37*G36*G1X3030Y6490D2*Y6290D1*X3230*Y6490*X3030*G37*G36*G1X2770Y6490D2*Y6290D1*X2970*Y6490*X2770*G37*G36*G1X2510Y6490D2*Y6290D1*X2710*Y6490*X2510*G37*G36*G1X90Y6360D2*Y5660D1*X2240*Y5790*X5590*Y5960*X6500*Y5470*X6870*Y5930*X6600*Y6090*X6870*Y6550*X6500*Y6060*X5590*Y6230*X2240*Y6360*X90*G37*G36*G1X6990Y10700D2*Y9830D1*X7760*Y9890*X9640*Y10870*X7170*X6990Y10700*G37*G36*G1X12390Y5560D2*X13140D1*Y4760*X13650Y4260*X14670*Y4760*X13650*Y5560*X14690*Y6460*X13590*Y9660*X15000*Y9490*X15850*Y9420*X20050*Y10600*X21360*Y12050*X20410*Y13180*X22750Y14260*X23670*Y15340*X21060*Y14200*X20000Y13680*X17360*Y15340*X16720*Y15690*X14670*Y12390*X16690*Y13180*X19220*Y10020*X15830*Y9990*X13110*Y9660*X13190*Y6460*X12390*Y5560*G37*G36*G1X0Y4000D2*Y0D1*X26000*Y3530*X16450*Y4010*X17650*X17850Y4210*Y4760*X17650Y4960*X16450*Y5760*X17450*Y5140*X17850*Y5790*X19150*Y5530*X19610*Y5790*X22160Y5780*Y5650*X22970*Y5910*X23850*Y5650*X25890*Y6360*X23850*Y6110*X22970*Y6370*X22160*Y6230*X19610*Y6490*X19150*Y6230*X17850*Y7510*X17450*Y6260*X15250*Y6500*X14890*Y5520*X15250*Y5760*X16250*Y4960*X16450Y4760*X17650*Y4210*X16450*X16250Y4010*Y3530*X15420*Y3220*X13280*Y910*X9110*Y4000*X0*G37*G36*G1X6380Y9140D2*X7740D1*Y9360*X9370*Y9070*X9720*Y8820*X9070*Y8370*X9720*Y8120*X9320*Y7830*X9160*Y7510*X9570*Y7830*X9420*Y8020*X9820*Y8470*X9170*Y8720*X9820*Y9170*X9470*Y9360*X9640*Y9720*X6780*Y10880*X7730Y11820*X12460*Y15690*X11590*Y12960*X8370*X6380Y10980*Y9140*G37*G36*G1X6474Y11546D2*X3540D1*Y9061*X1932*Y11546*X0*Y8030*X4590*Y9670*X6474Y11546*G37*G36*G1X0Y11546D2*X1932D1*Y14032*X3540*Y11546*X6474*X9430Y14490*X11250*Y16180*X12720*Y10180*X15830*Y10560*X17500*Y11800*X14470*Y16180*X17710*Y13920*X19770*X20060Y14210*Y15580*X24040*Y13500*X22050*Y8040*X26000*Y17000*X0*Y11546*G37*G36*G1X2418Y9459D2*X2462Y9410D1*X2523Y9367*X2594Y9338*X2681Y9322*X2821Y9326*X2891Y9339*X2954Y9366*X3012Y9403*X3075Y9461*X3114Y9534*X3134Y9612*X3142Y9731*X3130Y9821*X3098Y9912*X3057Y9966*X3010Y10009*X2976Y10024*X2925Y10050*X2877Y10062*Y9836*X2893Y9829*X2925Y9806*X2950Y9771*X2959Y9746*X2962Y9695*X2956Y9661*X2942Y9629*X2925Y9605*X2906Y9588*X2857Y9568*X2820Y9562*X2779Y9557*X2744*X2693Y9559*X2645Y9567*X2609Y9578*X2580Y9597*X2554Y9621*X2535Y9655*X2525Y9694*Y9735*X2528Y9746*X2538Y9774*X2555Y9800*X2577Y9822*X2609Y9840*X2633Y9848*Y10072*X2544Y10041*X2451Y9985*X2403Y9925*X2377Y9871*X2355Y9792*X2348Y9686*X2356Y9616*X2378Y9527*X2418Y9459*G37*G36*G1X2358Y11784D2*X3124D1*Y12429*X2953*Y12022*X2800*Y12389*X2643*Y12022*X2524*Y12417*X2358*Y11784*G37*G36*G1X2356Y11010D2*X3122D1*Y11655*X2951*Y11248*X2797*Y11615*X2641*Y11248*X2522*Y11642*X2356*Y11010*G37*G36*G1X2867Y10526D2*X2670D1*Y10418*X2515*Y10526*X2361*Y10179*X3129*Y10421*X2816*Y10497*X2867Y10526*G37*G36*G1X2361Y10526D2*X2515D1*Y10538*X2522Y10583*X2534Y10608*X2547Y10620*X2569Y10630*X2590Y10633*X2615Y10630*X2631Y10622*X2648Y10607*X2658Y10589*X2662Y10571*X2667Y10553*X2670Y10530*Y10526*X2867*X3129Y10670*Y10937*X2771Y10748*X2740Y10798*X2714Y10823*X2679Y10847*X2648Y10861*X2608Y10870*X2547*X2494Y10858*X2454Y10836*X2427Y10817*X2394Y10772*X2376Y10731*X2365Y10669*X2361Y10622*Y10526*G37*G36*G1X2995Y13254D2*X3124Y13385D1*X2995Y13510*Y13254*G37*G36*G1X2958Y13217D2*Y13548D1*X2844Y13658*Y13102*X2958Y13217*G37*G36*G1X2616Y13102D2*Y13658D1*X2502Y13548*Y13217*X2616Y13102*G37*G36*G1X2730Y13000D2*X2807Y13076D1*Y13694*X2730Y13769*X2653Y13694*Y13076*X2730Y13000*G37*G36*G1X2465Y13254D2*Y13510D1*X2336Y13385*X2465Y13254*G37*G36*G1X2745Y12599D2*X3124Y12975D1*Y13333*X2745Y12957*Y12599*G37*G36*G1X2336Y13324D2*Y12966D1*X2706Y12599*Y12957*X2336Y13324*G37*D14*G1X12704Y-14928D2*X11638D1*X12400Y-14166*X12552Y-13938*X12628Y-13785*Y-13633*X12552Y-13480*X12476Y-13404*X12324Y-13328*X12019*X11866Y-13404*X11790Y-13480*X11714Y-13633*Y-13709*X10114Y-13328D2*X9504Y-14928D1*X8895Y-13328*X7676Y-14928D2*X8666D1*X7676Y-14090D2*X8285D1*X8666Y-13328D2*X7676D1*Y-14928*X6609Y-14090D2*X7142Y-14928D1*X6076Y-14090D2*X6762D1*X6990Y-14014*X7066Y-13938*X7142Y-13785*Y-13633*X7066Y-13480*X6990Y-13404*X6762Y-13328*X6076*Y-14928*X3257Y-13328D2*X4324D1*X3562Y-14928*X1733Y-14623D2*X1809Y-14776D1*X1885Y-14852*X2114Y-14928*X2342*X2571Y-14852*X2724Y-14699*X2800Y-14471*Y-14318*X2724Y-14090*X2647Y-14014*X2495Y-13938*X2266*X2724Y-13328*X1885*X209Y-14623D2*X285Y-14776D1*X362Y-14852*X590Y-14928*X819*X1047Y-14852*X1200Y-14699*X1276Y-14471*Y-14318*X1200Y-14090*X1047Y-13938*X819Y-13861*X590*X362Y-13938*X285Y-14014*X362Y-13328*X1124*X-858D2*X-705D1*X-476Y-13404*X-324Y-13633*X-248Y-14014*Y-14242*X-324Y-14623*X-476Y-14852*X-705Y-14928*X-858*X-1086Y-14852*X-1238Y-14623*X-1315Y-14242*Y-14014*X-1238Y-13633*X-1086Y-13404*X-858Y-13328*X-2381D2*X-2229D1*X-2000Y-13404*X-1848Y-13633*X-1772Y-14014*Y-14242*X-1848Y-14623*X-2000Y-14852*X-2229Y-14928*X-2381*X-2610Y-14852*X-2762Y-14623*X-2838Y-14242*Y-14014*X-2762Y-13633*X-2610Y-13404*X-2381Y-13328*X-3905D2*X-3753D1*X-3524Y-13404*X-3372Y-13633*X-3296Y-14014*Y-14242*X-3372Y-14623*X-3524Y-14852*X-3753Y-14928*X-3905*X-4134Y-14852*X-4286Y-14623*X-4362Y-14242*Y-14014*X-4286Y-13633*X-4134Y-13404*X-3905Y-13328*X-6267Y-14242D2*X-4896D1*X-7867Y-14623D2*X-7791Y-14776D1*X-7715Y-14852*X-7486Y-14928*X-7257*X-7029Y-14852*X-6876Y-14699*X-6800Y-14471*Y-14318*X-6876Y-14090*X-6953Y-14014*X-7105Y-13938*X-7334*X-6876Y-13328*X-7715*X-8400Y-14928D2*Y-13328D1*X-9010Y-14928*X-9619Y-13328*Y-14928*X17581Y-17077D2*X17733Y-17229D1*X17962Y-17305*X18266*X18495Y-17229*X18647Y-17077*Y-16848*X18571Y-16696*X18495Y-16620*X18342Y-16544*X17885Y-16391*X17733Y-16315*X17657Y-16239*X17581Y-16086*Y-15934*X17733Y-15782*X17962Y-15705*X18266*X18495Y-15782*X18647Y-15934*X16209Y-17305D2*X17200D1*X16209Y-16467D2*X16819D1*X17200Y-15705D2*X16209D1*Y-17305*X15676Y-16924D2*X15600Y-17077D1*X15447Y-17229*X15295Y-17305*X14990*X14838Y-17229*X14685Y-17077*X14609Y-16924*X14533Y-16696*Y-16315*X14609Y-16086*X14685Y-15934*X14838Y-15782*X14990Y-15705*X15295*X15447Y-15782*X15600Y-15934*X15676Y-16086*X14000Y-15705D2*Y-17305D1*X13619Y-15705D2*X13009Y-17305D1*X12400Y-15705*X11181Y-17305D2*X12171D1*X11181Y-16467D2*X11790D1*X12171Y-15705D2*X11181D1*Y-17305*X9581D2*X10114D1*X10342Y-17229*X10495Y-17077*X10571Y-16924*X10647Y-16696*Y-16315*X10571Y-16086*X10495Y-15934*X10342Y-15782*X10114Y-15705*X9581*Y-17305*X7981D2*X7066D1*Y-15705*X6685Y-17305D2*X5771D1*Y-15705*X5162D2*Y-17305D1*X3562Y-16544D2*X4247D1*X4476Y-16467*X4552Y-16391*X4628Y-16239*Y-16010*X4552Y-15858*X4476Y-15782*X4247Y-15705*X3562*Y-17305*X1809Y-17153D2*Y-17229D1*X1733Y-17305*X1581*X1428Y-17229*X1276Y-17077*X895Y-16544*X742Y-16315*X666Y-16086*Y-15934*X742Y-15782*X895Y-15705*X1047Y-15782*X1124Y-15934*Y-16086*X1047Y-16239*X971Y-16315*X438Y-16620*X362Y-16696*X285Y-16848*Y-17001*X362Y-17153*X438Y-17229*X590Y-17305*X895*X1047Y-17229*X1200Y-17077*X1352Y-16848*X1504Y-16467*X1581Y-16315*X1657Y-16239*X1733*X1809Y-16315*Y-16391*X-2305Y-17305D2*X-1315D1*X-2305Y-16467D2*X-1696D1*X-1315Y-15705D2*X-2305D1*Y-17305*X-3219Y-16696D2*X-2838D1*Y-16924*X-2915Y-17077*X-3067Y-17229*X-3219Y-17305*X-3524*X-3676Y-17229*X-3829Y-17077*X-3905Y-16924*X-3981Y-16696*Y-16315*X-3905Y-16086*X-3829Y-15934*X-3676Y-15782*X-3524Y-15705*X-3219*X-3067Y-15782*X-2915Y-15934*X-2838Y-16086*X-4515Y-15705D2*Y-17305D1*X-5581Y-15705*Y-17305*X-6953Y-16772D2*X-6191D1*X-5962Y-17305D2*X-6572Y-15705D1*X-7181Y-17305*X-7334D2*X-8248D1*Y-15705*X-9619Y-16467D2*X-9010D1*X-8629Y-15705D2*X-9619D1*Y-17305*X15219Y-18013D2*X16285D1*X15524Y-19613*X14152Y-18013D2*X14304D1*X14533Y-18089*X14685Y-18317*X14762Y-18698*Y-18927*X14685Y-19308*X14533Y-19536*X14304Y-19613*X14152*X13924Y-19536*X13771Y-19308*X13695Y-18927*Y-18698*X13771Y-18317*X13924Y-18089*X14152Y-18013*X12857Y-18089D2*X12019Y-19689D1*X11257Y-18013D2*Y-19613D1*X11638Y-19079D2*X10495D1*X11257Y-18013*X10038Y-19613D2*X8971D1*X9733Y-18851*X9885Y-18622*X9962Y-18470*Y-18317*X9885Y-18165*X9809Y-18089*X9657Y-18013*X9352*X9200Y-18089*X9124Y-18165*X9047Y-18317*Y-18394*X8133Y-18089D2*X7295Y-19689D1*X6381Y-19613D2*Y-18013D1*X6152Y-18241*X6000Y-18317*X4704Y-18013D2*X4857D1*X5085Y-18089*X5238Y-18317*X5314Y-18698*Y-18927*X5238Y-19308*X5085Y-19536*X4857Y-19613*X4704*X4476Y-19536*X4324Y-19308*X4247Y-18927*Y-18698*X4324Y-18317*X4476Y-18089*X4704Y-18013*X-934Y-19613D2*X-400D1*X-172Y-19536*X-19Y-19384*X57Y-19232*X133Y-19003*Y-18622*X57Y-18394*X-19Y-18241*X-172Y-18089*X-400Y-18013*X-934*Y-19613*X-2229Y-18013D2*X-1924D1*X-1772Y-18089*X-1619Y-18241*X-1543Y-18394*X-1467Y-18622*Y-19003*X-1543Y-19232*X-1619Y-19384*X-1772Y-19536*X-1924Y-19613*X-2229*X-2381Y-19536*X-2534Y-19384*X-2610Y-19232*X-2686Y-19003*Y-18622*X-2610Y-18394*X-2534Y-18241*X-2381Y-18089*X-2229Y-18013*X-3905D2*X-3600D1*X-3448Y-18089*X-3296Y-18241*X-3219Y-18394*X-3143Y-18622*Y-19003*X-3219Y-19232*X-3296Y-19384*X-3448Y-19536*X-3600Y-19613*X-3905*X-4058Y-19536*X-4210Y-19384*X-4286Y-19232*X-4362Y-19003*Y-18622*X-4286Y-18394*X-4210Y-18241*X-4058Y-18089*X-3905Y-18013*X-4743D2*X-5124Y-19613D1*X-5505Y-18013*X-5886Y-19613*X-6267Y-18013*X-8019Y-19460D2*X-7943Y-19536D1*X-8019Y-19613*X-8096Y-19536*X-8019Y-19460*X-9696Y-19384D2*X-9543Y-19536D1*X-9315Y-19613*X-9010*X-8781Y-19536*X-8629Y-19384*Y-19156*X-8705Y-19003*X-8781Y-18927*X-8934Y-18851*X-9391Y-18698*X-9543Y-18622*X-9619Y-18546*X-9696Y-18394*Y-18241*X-9543Y-18089*X-9315Y-18013*X-9010*X-8781Y-18089*X-8629Y-18241*X24935Y-5852D2*X24078D1*Y-4352*X22792Y-5352D2*X23506D1*X23720Y-5852D2*X23149Y-4352D1*X22578Y-5852*X22220Y-4352D2*Y-5852D1*X20863Y-4352D2*X21863D1*X21363D2*Y-5852D1*X20506Y-4352D2*Y-5852D1*X19506Y-4352*Y-5852*X18149D2*X19078D1*X18149Y-5066D2*X18720D1*X19078Y-4352D2*X18149D1*Y-5852*X16649D2*X17149D1*X17363Y-5780*X17506Y-5637*X17578Y-5495*X17649Y-5280*Y-4923*X17578Y-4709*X17506Y-4566*X17363Y-4423*X17149Y-4352*X16649*Y-5852*X16078Y-4352D2*Y-5852D1*X14792Y-5066D2*X15363D1*X15720Y-4352D2*X14792D1*Y-5852*X14220Y-4352D2*Y-5852D1*X13220Y-4352*Y-5852*X12006Y-4352D2*X12292D1*X12435Y-4423*X12578Y-4566*X12649Y-4709*X12720Y-4923*Y-5280*X12649Y-5495*X12578Y-5637*X12435Y-5780*X12292Y-5852*X12006*X11863Y-5780*X11720Y-5637*X11649Y-5495*X11578Y-5280*Y-4923*X11649Y-4709*X11720Y-4566*X11863Y-4423*X12006Y-4352*X11149Y-5495D2*X11078Y-5637D1*X10935Y-5780*X10792Y-5852*X10506*X10363Y-5780*X10220Y-5637*X10149Y-5495*X10078Y-5280*Y-4923*X10149Y-4709*X10220Y-4566*X10363Y-4423*X10506Y-4352*X10792*X10935Y-4423*X11078Y-4566*X11149Y-4709*X7649Y-5852D2*X8578D1*X7649Y-5066D2*X8220D1*X8578Y-4352D2*X7649D1*Y-5852*X6292D2*X7220D1*X6292Y-5066D2*X6863D1*X7220Y-4352D2*X6292D1*Y-5852*X5292Y-5066D2*X5792Y-5852D1*X4792Y-5066D2*X5435D1*X5649Y-4995*X5720Y-4923*X5792Y-4780*Y-4637*X5720Y-4495*X5649Y-4423*X5435Y-4352*X4792*Y-5852*X4292Y-5495D2*X4220Y-5637D1*X4078Y-5780*X3935Y-5852*X3649*X3506Y-5780*X3363Y-5637*X3292Y-5495*X3220Y-5280*Y-4923*X3292Y-4709*X3363Y-4566*X3506Y-4423*X3649Y-4352*X3935*X4078Y-4423*X4220Y-4566*X4292Y-4709*X35485Y-10188D2*X35562Y-10264D1*X35485Y-10340*X35409Y-10264*X35485Y-10188*X34190Y-9426D2*X34876Y-10340D1*Y-8740D2*X33809Y-9807D1*Y-8740D2*Y-10340D1*X32133Y-9502D2*X33200D1*Y-8740D2*Y-10340D1*X32133Y-8740D2*Y-10340D1*X30685Y-8740D2*X31752D1*X31219D2*Y-10340D1*X28552Y-8740D2*X28704D1*X28933Y-8816*X29085Y-9045*X29162Y-9426*Y-9654*X29085Y-10035*X28933Y-10264*X28704Y-10340*X28552*X28324Y-10264*X28171Y-10035*X28095Y-9654*Y-9426*X28171Y-9045*X28324Y-8816*X28552Y-8740*X27638Y-10340D2*X26571D1*X27333Y-9578*X27485Y-9349*X27562Y-9197*Y-9045*X27485Y-8892*X27409Y-8816*X27257Y-8740*X26952*X26800Y-8816*X26724Y-8892*X26647Y-9045*Y-9121*X25504Y-8740D2*X25657D1*X25885Y-8816*X26038Y-9045*X26114Y-9426*Y-9654*X26038Y-10035*X25885Y-10264*X25657Y-10340*X25504*X25276Y-10264*X25124Y-10035*X25047Y-9654*Y-9426*X25124Y-9045*X25276Y-8816*X25504Y-8740*X24438Y-10188D2*X24514Y-10264D1*X24438Y-10340*X24362Y-10264*X24438Y-10188*X22381Y-10645D2*X22457Y-10568D1*X22533Y-10416*Y-10264*X22457Y-10188*X22381Y-10264*X22457Y-10340*X22533Y-10264*X20781Y-10340D2*X21466D1*X21695Y-10264*X21771Y-10188*X21847Y-10035*Y-9807*X21771Y-9654*X21695Y-9578*X21466Y-9502*X20781*X21466D2*X21695Y-9426D1*X21771Y-9349*X21847Y-9197*Y-9045*X21771Y-8892*X21695Y-8816*X21466Y-8740*X20781*Y-10340*X19638Y-8740D2*X19790D1*X20019Y-8816*X20171Y-9045*X20247Y-9426*Y-9654*X20171Y-10035*X20019Y-10264*X19790Y-10340*X19638*X19409Y-10264*X19257Y-10035*X19181Y-9654*Y-9426*X19257Y-9045*X19409Y-8816*X19638Y-8740*X17657Y-10035D2*X17733Y-10188D1*X17809Y-10264*X18038Y-10340*X18266*X18495Y-10264*X18647Y-10111*X18724Y-9883*Y-9730*X18647Y-9502*X18495Y-9349*X18266Y-9273*X18038*X17809Y-9349*X17733Y-9426*X17809Y-8740*X18571*X16133Y-10035D2*X16209Y-10188D1*X16285Y-10264*X16514Y-10340*X16742*X16971Y-10264*X17124Y-10111*X17200Y-9883*Y-9730*X17124Y-9502*X17047Y-9426*X16895Y-9349*X16666*X17124Y-8740*X16285*X15371D2*Y-10340D1*X15752Y-9807D2*X14609D1*X15371Y-8740*X13542D2*X13695D1*X13924Y-8816*X14076Y-9045*X14152Y-9426*Y-9654*X14076Y-10035*X13924Y-10264*X13695Y-10340*X13542*X13314Y-10264*X13162Y-10035*X13085Y-9654*Y-9426*X13162Y-9045*X13314Y-8816*X13542Y-8740*X12095Y-9502D2*X12628Y-10340D1*X11562Y-9502D2*X12247D1*X12476Y-9426*X12552Y-9349*X12628Y-9197*Y-9045*X12552Y-8892*X12476Y-8816*X12247Y-8740*X11562*Y-10340*X9581Y-10645D2*X9657Y-10568D1*X9733Y-10416*Y-10264*X9657Y-10188*X9581Y-10264*X9657Y-10340*X9733Y-10264*X7981Y-10340D2*X8666D1*X8895Y-10264*X8971Y-10188*X9047Y-10035*Y-9807*X8971Y-9654*X8895Y-9578*X8666Y-9502*X7981*X8666D2*X8895Y-9426D1*X8971Y-9349*X9047Y-9197*Y-9045*X8971Y-8892*X8895Y-8816*X8666Y-8740*X7981*Y-10340*X7447Y-9959D2*X7371Y-10111D1*X7219Y-10264*X7066Y-10340*X6762*X6609Y-10264*X6457Y-10111*X6381Y-9959*X6304Y-9730*Y-9349*X6381Y-9121*X6457Y-8968*X6609Y-8816*X6762Y-8740*X7066*X7219Y-8816*X7371Y-8968*X7447Y-9121*X4781Y-9578D2*X5466D1*X5695Y-9502*X5771Y-9426*X5847Y-9273*Y-9045*X5771Y-8892*X5695Y-8816*X5466Y-8740*X4781*Y-10340*X2495Y-9502D2*X3028Y-10340D1*X1962Y-9502D2*X2647D1*X2876Y-9426*X2952Y-9349*X3028Y-9197*Y-9045*X2952Y-8892*X2876Y-8816*X2647Y-8740*X1962*Y-10340*X514D2*X1504D1*X514Y-9502D2*X1124D1*X1504Y-8740D2*X514D1*Y-10340*X-934Y-8740D2*X133D1*X-400D2*Y-10340D1*X-2305Y-10111D2*X-2153Y-10264D1*X-1924Y-10340*X-1619*X-1391Y-10264*X-1238Y-10111*Y-9883*X-1315Y-9730*X-1391Y-9654*X-1543Y-9578*X-2000Y-9426*X-2153Y-9349*X-2229Y-9273*X-2305Y-9121*Y-8968*X-2153Y-8816*X-1924Y-8740*X-1619*X-1391Y-8816*X-1238Y-8968*X-3600Y-9807D2*X-2838D1*X-2610Y-10340D2*X-3219Y-8740D1*X-3829Y-10340*X-4210D2*Y-8740D1*X-4819Y-10340*X-5429Y-8740*Y-10340*X-6876Y-8740D2*X-5810D1*X-6343D2*Y-10340D1*X-7715Y-9502D2*X-7181Y-10340D1*X-8248Y-9502D2*X-7562D1*X-7334Y-9426*X-7258Y-9349*X-7181Y-9197*Y-9045*X-7258Y-8892*X-7334Y-8816*X-7562Y-8740*X-8248*Y-10340*X-9619Y-9807D2*X-8857D1*X-8629Y-10340D2*X-9238Y-8740D1*X-9848Y-10340*X26808Y-12721D2*X27341D1*X27570Y-12645*X27722Y-12493*X27798Y-12340*X27874Y-12112*Y-11731*X27798Y-11502*X27722Y-11350*X27570Y-11197*X27341Y-11121*X26808*Y-12721*X25741Y-11883D2*X26274Y-12721D1*X25208Y-11883D2*X25893D1*X26122Y-11807*X26198Y-11731*X26274Y-11578*Y-11426*X26198Y-11274*X26122Y-11197*X25893Y-11121*X25208*Y-12721*X23836Y-12188D2*X24598D1*X24827Y-12721D2*X24217Y-11121D1*X23608Y-12721*X22541Y-11121D2*X22846D1*X22998Y-11197*X23150Y-11350*X23227Y-11502*X23303Y-11731*Y-12112*X23227Y-12340*X23150Y-12493*X22998Y-12645*X22846Y-12721*X22541*X22389Y-12645*X22236Y-12493*X22160Y-12340*X22084Y-12112*Y-11731*X22160Y-11502*X22236Y-11350*X22389Y-11197*X22541Y-11121*X20560Y-12721D2*X21246D1*X21474Y-12645*X21550Y-12569*X21627Y-12416*Y-12188*X21550Y-12036*X21474Y-11959*X21246Y-11883*X20560*X21246D2*X21474Y-11807D1*X21550Y-11731*X21627Y-11578*Y-11426*X21550Y-11274*X21474Y-11197*X21246Y-11121*X20560*Y-12721*X18960D2*X18046D1*Y-11121*X16674Y-12188D2*X17436D1*X17665Y-12721D2*X17055Y-11121D1*X16446Y-12721*X16293Y-11121D2*X15684Y-12721D1*X15074Y-11121*X13855Y-12721D2*X14846D1*X13855Y-11883D2*X14465D1*X14846Y-11121D2*X13855D1*Y-12721*X12027Y-11121D2*Y-12721D1*X10960Y-11121*Y-12721*X10350Y-12493D2*X10198Y-12645D1*X10046Y-12721*X9817*X9665Y-12645*X9512Y-12493*X9436Y-12264*Y-12112*X9512Y-11883*X9665Y-11731*X9817Y-11654*X10046*X10198Y-11731*X10350Y-11883*Y-11654D2*Y-12721D1*X8598Y-12112D2*X8979D1*Y-12340*X8903Y-12493*X8750Y-12645*X8598Y-12721*X8293*X8141Y-12645*X7989Y-12493*X7912Y-12340*X7836Y-12112*Y-11731*X7912Y-11502*X7989Y-11350*X8141Y-11197*X8293Y-11121*X8598*X8750Y-11197*X8903Y-11350*X8979Y-11502*X6236Y-11121D2*X5855Y-12721D1*X5474Y-11121*X5093Y-12721*X4712Y-11121*X3722D2*X3874D1*X4103Y-11197*X4255Y-11426*X4331Y-11807*Y-12036*X4255Y-12416*X4103Y-12645*X3874Y-12721*X3722*X3493Y-12645*X3341Y-12416*X3265Y-12036*Y-11807*X3341Y-11426*X3493Y-11197*X3722Y-11121*X2350Y-12721D2*Y-11121D1*X2122Y-11350*X1970Y-11426*X-164Y-13026D2*X-88Y-12950D1*X-11Y-12797*Y-12645*X-88Y-12569*X-164Y-12645*X-88Y-12721*X-11Y-12645*X-1535Y-12721D2*X-697D1*X-1535Y-11654D2*X-697D1*X-1535Y-12721*X-3135Y-11883D2*X-2069D1*Y-11121D2*Y-12721D1*X-3135Y-11121D2*Y-12721D1*X-4050Y-12112D2*X-3669D1*Y-12340*X-3745Y-12493*X-3897Y-12645*X-4050Y-12721*X-4354*X-4507Y-12645*X-4659Y-12493*X-4735Y-12340*X-4811Y-12112*Y-11731*X-4735Y-11502*X-4659Y-11350*X-4507Y-11197*X-4354Y-11121*X-4050*X-3897Y-11197*X-3745Y-11350*X-3669Y-11502*X-7554Y-11121D2*X-6488D1*X-7250Y-12721*X-8164Y-12569D2*X-8088Y-12645D1*X-8164Y-12721*X-8240Y-12645*X-8164Y-12569*X-9840Y-12416D2*X-9764Y-12569D1*X-9688Y-12645*X-9459Y-12721*X-9230*X-9002Y-12645*X-8850Y-12493*X-8773Y-12264*Y-12112*X-8850Y-11883*X-8926Y-11807*X-9078Y-11731*X-9307*X-8850Y-11121*X-9688*
%LPC*%
D200*G1X1317Y2263D2*X1495D1*X1398Y2110*X1446*X1479Y2091*X1495Y2072*X1511Y2015*Y1977*X1495Y1920*X1462Y1882*X1414Y1863*X1365*X1317Y1882*X1300Y1901*X1284Y1939*X1624Y2034D2*X1916D1*X2126Y2263D2*X2078Y2244D1*X2045Y2187*X2029Y2091*Y2034*X2045Y1939*X2078Y1882*X2126Y1863*X2159*X2207Y1882*X2240Y1939*X2256Y2034*Y2091*X2240Y2187*X2207Y2244*X2159Y2263*X2126*X2450D2*X2401Y2244D1*X2369Y2187*X2353Y2091*Y2034*X2369Y1939*X2401Y1882*X2450Y1863*X2482*X2531Y1882*X2563Y1939*X2580Y2034*Y2091*X2563Y2187*X2531Y2244*X2482Y2263*X2450*X2774D2*X2725Y2244D1*X2693Y2187*X2677Y2091*Y2034*X2693Y1939*X2725Y1882*X2774Y1863*X2806*X2855Y1882*X2887Y1939*X2903Y2034*Y2091*X2887Y2187*X2855Y2244*X2806Y2263*X2774*X3195D2*X3033D1*X3017Y2091*X3033Y2110*X3081Y2130*X3130*X3179Y2110*X3211Y2072*X3227Y2015*Y1977*X3211Y1920*X3179Y1882*X3130Y1863*X3081*X3033Y1882*X3017Y1901*X3000Y1939*X3357Y2263D2*X3535D1*X3438Y2110*X3486*X3519Y2091*X3535Y2072*X3551Y2015*Y1977*X3535Y1920*X3502Y1882*X3454Y1863*X3405*X3357Y1882*X3340Y1901*X3324Y1939*X3713Y1863D2*X3875Y2263D1*X3648*X4247Y1863D2*Y2263D1*X4393*X4441Y2244*X4458Y2225*X4474Y2187*Y2149*X4458Y2110*X4441Y2091*X4393Y2072*X4247*X4360D2*X4474Y1863D1*X4587D2*Y2263D1*X4798*X4587Y2072D2*X4717D1*X4587Y1863D2*X4798D1*X4846Y2263D2*X4976Y1863D1*X5105Y2263*X5445Y2168D2*Y2187D1*X5461Y2225*X5478Y2244*X5510Y2263*X5575*X5607Y2244*X5623Y2225*X5640Y2187*Y2149*X5623Y2110*X5591Y2053*X5429Y1863*X5656*X17304Y1898D2*X17450D1*X17498Y1917*X17514Y1936*X17531Y1974*Y2032*X17514Y2070*X17498Y2089*X17450Y2108*X17304*X17450D2*X17498Y2127D1*X17514Y2146*X17531Y2184*Y2222*X17514Y2260*X17498Y2279*X17450Y2298*X17304*Y1898*X16996Y2298D2*X17223D1*X17110D2*Y1898D1*X16624Y2070D2*X16915D1*X16381Y2298D2*X16414D1*X16462Y2279*X16494Y2222*X16511Y2127*Y2070*X16494Y1974*X16462Y1917*X16414Y1898*X16381*X16333Y1917*X16300Y1974*X16284Y2070*Y2127*X16300Y2222*X16333Y2279*X16381Y2298*X16090Y1898D2*Y2298D1*X16041Y2241*X16009Y2222*X15734Y2298D2*X15766D1*X15814Y2279*X15847Y2222*X15863Y2127*Y2070*X15847Y1974*X15814Y1917*X15766Y1898*X15734*X15685Y1917*X15653Y1974*X15636Y2070*Y2127*X15653Y2222*X15685Y2279*X15734Y2298*X15410D2*X15442D1*X15491Y2279*X15523Y2222*X15539Y2127*Y2070*X15523Y1974*X15491Y1917*X15442Y1898*X15410*X15361Y1917*X15329Y1974*X15313Y2070*Y2127*X15329Y2222*X15361Y2279*X15410Y2298*X15151D2*Y1898D1*X15232Y2032D2*X14989D1*X15151Y2298*X14649Y2108D2*X14875D1*Y2298D2*Y1898D1*X14649Y2298D2*Y1898D1*X14454Y2051D2*X14535D1*Y1993*X14519Y1955*X14487Y1917*X14454Y1898*X14390*X14357Y1917*X14325Y1955*X14309Y1993*X14293Y2051*Y2146*X14309Y2203*X14325Y2241*X14357Y2279*X14390Y2298*X14454*X14487Y2279*X14519Y2241*X14535Y2203*X14195Y1993D2*X14179Y1955D1*X14147Y1917*X14114Y1898*X14050*X14017Y1917*X13985Y1955*X13969Y1993*X13953Y2051*Y2146*X13969Y2203*X13985Y2241*X14017Y2279*X14050Y2298*X14114*X14147Y2279*X14179Y2241*X14195Y2203*D205*X26000Y0D2*X0D1*Y17000*X26000*Y0*D203*X3000Y15000D3*X23000Y2000D3*D204*X19000Y15000D3*X7000Y2000D3*X19000D3*X7000Y15000D3*X0Y0D2*M02*